<svg id="visual" viewBox="0 0 900 600" width="900" height="600" xmlns="http://www.w3.org/2000/svg" xmlns:xlink="http://www.w3.org/1999/xlink" version="1.1"><rect x="0" y="0" width="900" height="600" fill="#0D1117"></rect><path d="M0 368L21.5 365.3C43 362.7 86 357.3 128.8 355.2C171.7 353 214.3 354 257.2 368C300 382 343 409 385.8 418.8C428.7 428.7 471.3 421.3 514.2 412C557 402.7 600 391.3 642.8 389C685.7 386.7 728.3 393.3 771.2 399.2C814 405 857 410 878.5 412.5L900 415L900 601L878.5 601C857 601 814 601 771.2 601C728.3 601 685.7 601 642.8 601C600 601 557 601 514.2 601C471.3 601 428.7 601 385.8 601C343 601 300 601 257.2 601C214.3 601 171.7 601 128.8 601C86 601 43 601 21.5 601L0 601Z" fill="#c81c5d"></path><path d="M0 456L21.5 449.2C43 442.3 86 428.7 128.8 425.8C171.7 423 214.3 431 257.2 439.5C300 448 343 457 385.8 455.3C428.7 453.7 471.3 441.3 514.2 442C557 442.7 600 456.3 642.8 455C685.7 453.7 728.3 437.3 771.2 438.2C814 439 857 457 878.5 466L900 475L900 601L878.5 601C857 601 814 601 771.2 601C728.3 601 685.7 601 642.8 601C600 601 557 601 514.2 601C471.3 601 428.7 601 385.8 601C343 601 300 601 257.2 601C214.3 601 171.7 601 128.8 601C86 601 43 601 21.5 601L0 601Z" fill="#ba1c6a"></path><path d="M0 489L21.5 485.8C43 482.7 86 476.3 128.8 477.5C171.7 478.7 214.3 487.3 257.2 482.5C300 477.7 343 459.3 385.8 460C428.7 460.7 471.3 480.3 514.2 491.7C557 503 600 506 642.8 501C685.7 496 728.3 483 771.2 482.7C814 482.3 857 494.7 878.5 500.8L900 507L900 601L878.5 601C857 601 814 601 771.2 601C728.3 601 685.7 601 642.8 601C600 601 557 601 514.2 601C471.3 601 428.7 601 385.8 601C343 601 300 601 257.2 601C214.3 601 171.7 601 128.8 601C86 601 43 601 21.5 601L0 601Z" fill="#a92274"></path><path d="M0 487L21.5 492.7C43 498.3 86 509.7 128.8 511.8C171.7 514 214.3 507 257.2 508.8C300 510.7 343 521.3 385.8 521C428.7 520.7 471.3 509.3 514.2 506.8C557 504.3 600 510.7 642.8 509.5C685.7 508.3 728.3 499.7 771.2 495.2C814 490.7 857 490.3 878.5 490.2L900 490L900 601L878.5 601C857 601 814 601 771.2 601C728.3 601 685.7 601 642.8 601C600 601 557 601 514.2 601C471.3 601 428.7 601 385.8 601C343 601 300 601 257.2 601C214.3 601 171.7 601 128.8 601C86 601 43 601 21.5 601L0 601Z" fill="#96297c"></path><path d="M0 564L21.5 558.3C43 552.7 86 541.3 128.8 540C171.7 538.7 214.3 547.3 257.2 549C300 550.7 343 545.3 385.8 547.8C428.7 550.3 471.3 560.7 514.2 558.2C557 555.7 600 540.3 642.8 539.2C685.7 538 728.3 551 771.2 555.8C814 560.7 857 557.3 878.5 555.7L900 554L900 601L878.5 601C857 601 814 601 771.2 601C728.3 601 685.7 601 642.8 601C600 601 557 601 514.2 601C471.3 601 428.7 601 385.8 601C343 601 300 601 257.2 601C214.3 601 171.7 601 128.8 601C86 601 43 601 21.5 601L0 601Z" fill="#813082"></path></svg>